<svg xmlns="http://www.w3.org/2000/svg" xmlns:xlink="http://www.w3.org/1999/xlink" version="1.1" x="0px" y="0px" width="100px" height="100px" viewBox="0 0 100 100" enable-background="new 0 0 100 100" xml:space="preserve">
<g id="Captions">
</g>
<g id="Your_Icon">
	<path d="M90.94,32.741L90.94,32.741L8.653,32.729c-0.69,0-1.25-0.56-1.25-1.25s0.56-1.25,1.25-1.25l0,0l82.287,0.013   c0.69,0,1.25,0.56,1.25,1.25S91.631,32.741,90.94,32.741z"/>
	<path d="M56.394,46.466c-0.69,0-1.25-0.56-1.25-1.25v-12.72c0-0.69,0.56-1.25,1.25-1.25s1.25,0.56,1.25,1.25v12.72   C57.644,45.906,57.084,46.466,56.394,46.466z"/>
	<path d="M21.776,57.854H9.544c-0.69,0-1.25-0.56-1.25-1.25s0.56-1.25,1.25-1.25h10.982V32.496c0-0.69,0.56-1.25,1.25-1.25   s1.25,0.56,1.25,1.25v24.108C23.026,57.295,22.467,57.854,21.776,57.854z"/>
	<path d="M75.181,46.466c-0.69,0-1.25-0.56-1.25-1.25v-12.72c0-0.69,0.56-1.25,1.25-1.25s1.25,0.56,1.25,1.25v12.72   C76.431,45.906,75.871,46.466,75.181,46.466z"/>
	<path d="M38.94,46.466c-0.69,0-1.25-0.56-1.25-1.25v-12.72c0-0.69,0.56-1.25,1.25-1.25s1.25,0.56,1.25,1.25v12.72   C40.19,45.906,39.631,46.466,38.94,46.466z"/>
	<path d="M63.981,72.38H41.394c-0.69,0-1.25-0.56-1.25-1.25s0.56-1.25,1.25-1.25h22.588c0.69,0,1.25,0.56,1.25,1.25   S64.672,72.38,63.981,72.38z"/>
	<path d="M89.93,72.38h-9.026c-0.69,0-1.25-0.56-1.25-1.25s0.56-1.25,1.25-1.25h9.026c0.089,0,0.167-0.078,0.167-0.167V22.091   c0-0.089-0.078-0.167-0.167-0.167H10.07c-0.089,0-0.167,0.078-0.167,0.167v47.622c0,0.089,0.078,0.167,0.167,0.167h13.485   c0.69,0,1.25,0.56,1.25,1.25s-0.56,1.25-1.25,1.25H10.07c-1.471,0-2.667-1.196-2.667-2.667V22.091c0-1.471,1.196-2.667,2.667-2.667   H89.93c1.471,0,2.667,1.196,2.667,2.667v47.622C92.597,71.184,91.4,72.38,89.93,72.38z"/>
	<path d="M90.94,48.3H21.776c-0.69,0-1.25-0.56-1.25-1.25s0.56-1.25,1.25-1.25H90.94c0.69,0,1.25,0.56,1.25,1.25   S91.631,48.3,90.94,48.3z"/>
	<path d="M32.479,80.576c-5.208,0-9.445-4.237-9.445-9.446c0-5.208,4.237-9.445,9.445-9.445c5.207,0,9.443,4.237,9.443,9.445   C41.923,76.339,37.687,80.576,32.479,80.576z M32.479,64.185c-3.83,0-6.945,3.115-6.945,6.945s3.115,6.946,6.945,6.946   c3.828,0,6.943-3.116,6.943-6.946S36.308,64.185,32.479,64.185z"/>
	<path d="M72.427,80.576c-5.207,0-9.443-4.237-9.443-9.446c0-5.208,4.236-9.445,9.443-9.445c5.208,0,9.445,4.237,9.445,9.445   C81.872,76.339,77.635,80.576,72.427,80.576z M72.427,64.185c-3.828,0-6.943,3.115-6.943,6.945s3.115,6.946,6.943,6.946   c3.83,0,6.945-3.116,6.945-6.946S76.257,64.185,72.427,64.185z"/>
</g>
</svg>